<svg width="22" height="22" viewBox="0 0 22 22" fill="none" xmlns="http://www.w3.org/2000/svg">
<path fill-rule="evenodd" clip-rule="evenodd" d="M6.74219 2.94328V1.59489C6.72266 1.39296 6.82031 0.992998 7.36719 1.00863C7.89548 0.993528 9.93656 1.00153 10.9902 1.00796C12.0439 1.00153 14.085 0.993528 14.6133 1.00863C15.1602 0.992998 15.2578 1.39296 15.2383 1.59489V2.94328C15.2383 3.19342 15.1081 3.38623 15.043 3.45137L14.0273 4.48709V7.63334H14.5156C14.8392 7.63334 15.1016 7.89581 15.1016 8.21959V11.7762C15.1016 12.1 14.8392 12.3625 14.5156 12.3625H13.9031L11.5859 15.3659V16.5835C11.5859 16.9073 11.3236 17.1698 11 17.1698C10.6764 17.1698 10.4141 16.9073 10.4141 16.5835V15.4275L8.04935 12.3625H7.48438C7.16077 12.3625 6.89844 12.1 6.89844 11.7762V8.21959C6.89844 7.89581 7.16077 7.63334 7.48438 7.63334H7.95312V4.48709L6.9375 3.45137C6.8724 3.38623 6.74219 3.19342 6.74219 2.94328ZM10.9762 14.1032L12.3192 12.3625H9.63327L10.9762 14.1032ZM7.95312 2.16161H10.8828H11.0977H14.0273V2.7674L13.2656 3.54908H11.0977H10.8828H8.71484L7.95312 2.7674V2.16161ZM9.14453 4.72159H10.8828H11.0977H12.8359V7.63334H9.14453V4.72159ZM8.07031 8.80585V11.19H9.24219V8.80585H8.07031ZM10.4141 8.80585V11.19H11.5859V8.80585H10.4141ZM13.9297 11.19H12.7578V8.80585H13.9297V11.19ZM2.47534 14.3233C2.66452 14.0606 3.03072 14.0011 3.29327 14.1904L4.18452 14.8329C4.44707 15.0222 4.50655 15.3886 4.31737 15.6513C4.12819 15.914 3.762 15.9735 3.49945 15.7842L2.6082 15.1417C2.34565 14.9524 2.28617 14.586 2.47534 14.3233ZM1 20.4137C1 20.09 1.26233 19.8275 1.58594 19.8275H9.09491L5.57695 17.2913C5.3144 17.102 5.25492 16.7356 5.44409 16.4729C5.63327 16.2102 5.99947 16.1507 6.26202 16.34L10.9936 19.7511L15.7251 16.34C15.9876 16.1507 16.3538 16.2102 16.543 16.4729C16.7322 16.7356 16.6727 17.102 16.4102 17.2913L12.8922 19.8275H20.4141C20.7377 19.8275 21 20.09 21 20.4137C21 20.7375 20.7377 21 20.4141 21H1.58594C1.26233 21 1 20.7375 1 20.4137ZM18.4158 14.464C18.6783 14.2747 19.0445 14.3342 19.2337 14.5969C19.4229 14.8596 19.3634 15.226 19.1009 15.4153L18.5276 15.8285C18.2651 16.0178 17.8989 15.9583 17.7097 15.6956C17.5205 15.4329 17.58 15.0665 17.8426 14.8772L18.4158 14.464Z" fill="#90604C" stroke="#90604C" stroke-width="0.5"/>
<mask id="mask0_59_366" style="mask-type:alpha" maskUnits="userSpaceOnUse" x="0" y="0" width="22" height="22">
<path fill-rule="evenodd" clip-rule="evenodd" d="M6.74219 2.94328V1.59489C6.72266 1.39296 6.82031 0.992998 7.36719 1.00863C7.89548 0.993528 9.93656 1.00153 10.9902 1.00796C12.0439 1.00153 14.085 0.993528 14.6133 1.00863C15.1602 0.992998 15.2578 1.39296 15.2383 1.59489V2.94328C15.2383 3.19342 15.1081 3.38623 15.043 3.45137L14.0273 4.48709V7.63334H14.5156C14.8392 7.63334 15.1016 7.89581 15.1016 8.21959V11.7762C15.1016 12.1 14.8392 12.3625 14.5156 12.3625H13.9031L11.5859 15.3659V16.5835C11.5859 16.9073 11.3236 17.1698 11 17.1698C10.6764 17.1698 10.4141 16.9073 10.4141 16.5835V15.4275L8.04935 12.3625H7.48438C7.16077 12.3625 6.89844 12.1 6.89844 11.7762V8.21959C6.89844 7.89581 7.16077 7.63334 7.48438 7.63334H7.95312V4.48709L6.9375 3.45137C6.8724 3.38623 6.74219 3.19342 6.74219 2.94328ZM10.9762 14.1032L12.3192 12.3625H9.63327L10.9762 14.1032ZM7.95312 2.16161H10.8828H11.0977H14.0273V2.7674L13.2656 3.54908H11.0977H10.8828H8.71484L7.95312 2.7674V2.16161ZM9.14453 4.72159H10.8828H11.0977H12.8359V7.63334H9.14453V4.72159ZM8.07031 8.80585V11.19H9.24219V8.80585H8.07031ZM10.4141 8.80585V11.19H11.5859V8.80585H10.4141ZM13.9297 11.19H12.7578V8.80585H13.9297V11.19ZM2.47534 14.3233C2.66452 14.0606 3.03072 14.0011 3.29327 14.1904L4.18452 14.8329C4.44707 15.0222 4.50655 15.3886 4.31737 15.6513C4.12819 15.914 3.762 15.9735 3.49945 15.7842L2.6082 15.1417C2.34565 14.9524 2.28617 14.586 2.47534 14.3233ZM1 20.4137C1 20.09 1.26233 19.8275 1.58594 19.8275H9.09491L5.57695 17.2913C5.3144 17.102 5.25492 16.7356 5.44409 16.4729C5.63327 16.2102 5.99947 16.1507 6.26202 16.34L10.9936 19.7511L15.7251 16.34C15.9876 16.1507 16.3538 16.2102 16.543 16.4729C16.7322 16.7356 16.6727 17.102 16.4102 17.2913L12.8922 19.8275H20.4141C20.7377 19.8275 21 20.09 21 20.4137C21 20.7375 20.7377 21 20.4141 21H1.58594C1.26233 21 1 20.7375 1 20.4137ZM18.4158 14.464C18.6783 14.2747 19.0445 14.3342 19.2337 14.5969C19.4229 14.8596 19.3634 15.226 19.1009 15.4153L18.5276 15.8285C18.2651 16.0178 17.8989 15.9583 17.7097 15.6956C17.5205 15.4329 17.58 15.0665 17.8426 14.8772L18.4158 14.464Z" fill="#90604C" stroke="#90604C"/>
</mask>
<g mask="url(#mask0_59_366)">
<path d="M4 11.5L4.5 0.5C8 -0.833333 15.2 -3.5 16 -3.5C17 -3.5 18 -1 18.5 -0.5C18.9 -0.0999999 20.3333 6.66667 21 10L15 15L11 18.5L10 18L8 16.5L4 11.5Z" fill="#90604C"/>
</g>
<path d="M14 2.80333V2.15H8V2.77222L8.74036 3.55H13.2442L14 2.80333Z" fill="white"/>
<rect x="8.09998" y="8.8" width="1.18" height="2.38" fill="white"/>
<rect x="10.4" y="8.8" width="1.18" height="2.38" fill="white"/>
<rect x="12.75" y="8.8" width="1.18" height="2.38" fill="white"/>
<path d="M10.975 14.1L12.3823 12.375H9.56768L10.975 14.1Z" fill="white"/>
</svg>
